<?xml version="1.0" encoding="utf-8"?>
<!-- Generator: Adobe Illustrator 19.2.1, SVG Export Plug-In . SVG Version: 6.00 Build 0)  -->
<svg version="1.1" id="Calque_2" xmlns="http://www.w3.org/2000/svg" xmlns:xlink="http://www.w3.org/1999/xlink" x="0px" y="0px"
	 viewBox="0 0 100 99.9" style="enable-background:new 0 0 100 99.9;" xml:space="preserve">
<style type="text/css">
	.st0{fill:none;stroke:#000000;stroke-width:2.4851;stroke-miterlimit:10;}
	.st1{fill:none;stroke:#FFFFFF;stroke-width:0.5;stroke-miterlimit:10;}
	.st2{fill:none;stroke:#FFFFFF;stroke-width:0.5;stroke-linecap:round;stroke-linejoin:round;stroke-miterlimit:10;}
</style>
<ellipse cx="48.6" cy="60.4" rx="16.2" ry="30.6"/>
<circle cx="49" cy="22" r="8"/>
<ellipse transform="matrix(0.6206 -0.7841 0.7841 0.6206 -15.5972 76.6276)" cx="71.4" cy="54.4" rx="7" ry="32.2"/>
<ellipse transform="matrix(0.7071 -0.7071 0.7071 0.7071 -33.1254 35.3906)" cx="26.2" cy="57.7" rx="32.2" ry="7"/>
<line class="st0" x1="49.9" y1="21.8" x2="60" y2="9.1"/>
<line class="st0" x1="48" y1="23.4" x2="40" y2="9.4"/>
<circle cx="39" cy="7.9" r="3"/>
<circle cx="61" cy="7.9" r="3"/>
<g>
	<line class="st1" x1="34.4" y1="58.4" x2="62.8" y2="58.4"/>
	<line class="st2" x1="34.8" y1="63" x2="62.5" y2="63"/>
	<line class="st2" x1="35.2" y1="67.6" x2="61.9" y2="67.6"/>
	<line class="st2" x1="35.8" y1="72" x2="61.6" y2="72"/>
	<line class="st2" x1="37.1" y1="76.4" x2="60" y2="76.4"/>
	<line class="st2" x1="39.3" y1="80.7" x2="58.2" y2="80.7"/>
	<line class="st2" x1="41.7" y1="84.4" x2="55.7" y2="84.4"/>
	<path class="st1" d="M62.7,58.2c0.1,1.2,0.1,1.9,0.1,3.1c0,14.8-6.3,26.8-14.2,26.8s-14.2-12-14.2-26.8c0-1.2,0-1.7,0.1-2.9"/>
</g>
</svg>
