<?xml version="1.0" encoding="utf-8"?>
<!-- Generator: Adobe Illustrator 19.2.1, SVG Export Plug-In . SVG Version: 6.00 Build 0)  -->
<svg version="1.1" id="Calque_1" xmlns="http://www.w3.org/2000/svg" xmlns:xlink="http://www.w3.org/1999/xlink" x="0px" y="0px"
	 viewBox="0 0 100 99.9" style="enable-background:new 0 0 100 99.9;" xml:space="preserve">
<style type="text/css">
	.st0{display:none;}
	.st1{display:inline;}
	.st2{fill:#FFFFFF;stroke:#000000;stroke-width:1.1222;stroke-miterlimit:10;}
	.st3{fill:#FFFFFF;stroke:#000000;stroke-width:0.8694;stroke-miterlimit:10;}
	.st4{fill:#FFFFFF;stroke:#000000;stroke-width:0.8019;stroke-miterlimit:10;}
	.st5{fill:none;stroke:#000000;stroke-width:2;stroke-miterlimit:10;}
</style>
<g id="Calque_1_1_" class="st0">
	<g class="st1">
		<path class="st2" d="M62.6,25.6H36.5v-2c0-2.2-1.8-4.1-4.1-4.1H22.3c-2.2,0-3.9,1.8-3.9,4.1v34.2c0,2.2,1.8,4.1,4.1,4.1l0,0h40.2
			c2.2,0,4.1-1.8,4.1-4.1l0,0V29.7C66.7,27.4,64.9,25.6,62.6,25.6L62.6,25.6z"/>
		<path class="st3" d="M68.9,41.1H48.6v-1.6c0-1.8-1.4-3.1-3.1-3.1h-7.8c-1.8,0-3.1,1.4-3.1,3.1V66c0,1.8,1.4,3.1,3.1,3.1l0,0h31.1
			c1.8,0,3.1-1.4,3.1-3.1l0,0V44.2C72,42.4,70.5,41.1,68.9,41.1L68.9,41.1z"/>
		<path class="st4" d="M79.2,53.9H60.5v-1.5c0-1.6-1.2-2.8-2.8-2.8h-7.2c-1.6,0-2.8,1.4-2.8,2.8v24.4c0,1.6,1.2,2.8,2.8,2.8l0,0
			h28.7c1.6,0,2.8-1.2,2.8-2.8l0,0V56.9C82,55.3,80.8,53.9,79.2,53.9L79.2,53.9z"/>
	</g>
</g>
<g id="Calque_2">
	<path class="st5" d="M61.2,55"/>
	<path class="st5" d="M32.2,55H17.4c-1.5,0-2.8-1.3-2.8-2.8V17.5c0-0.8,0.7-1.5,1.5-1.5h15.8c0.8,0,1.6,0.6,1.8,1.4l1,3.4h28
		c1.5,0,2.8,1.2,2.8,2.8v15.8"/>
	<path class="st5" d="M65.5,39.4h6.1c1.2,0,2.3,1,2.3,2.3v12.9"/>
	<path class="st5" d="M47.5,67.1H35c-1.2,0-2.3-1-2.3-2.3V36.7c0-0.7,0.5-1.2,1.2-1.2h12.8c0.7,0,1.3,0.5,1.5,1.1l0.7,2.8h16.6"/>
	<path class="st5" d="M47.5,67.1V52.3c0-0.5,0.4-1,1-1h10.8c0.6,0,1.1,0.4,1.2,0.9l1,3"/>
	<path class="st5" d="M73.9,54.6h6.4c1,0,1.9,0.9,1.9,1.9v19.2c0,1.2-1,2.2-2.2,2.2H49.4c-1.1,0-1.9-0.9-1.9-1.9v-8.9"/>
	<path class="st5" d="M60.5,54.6h13.4"/>
</g>
</svg>
