<?xml version="1.0" encoding="utf-8"?>
<!-- Generator: Adobe Illustrator 19.2.1, SVG Export Plug-In . SVG Version: 6.00 Build 0)  -->
<svg version="1.1" id="Calque_3" xmlns="http://www.w3.org/2000/svg" xmlns:xlink="http://www.w3.org/1999/xlink" x="0px" y="0px"
	 viewBox="0 0 100 99.9" style="enable-background:new 0 0 100 99.9;" xml:space="preserve">
<style type="text/css">
	.st0{fill:none;stroke:#000000;stroke-width:3.6444;stroke-miterlimit:10;}
</style>
<g>
	<path d="M14.6,65.7c0,6.6,4,9.7,10.1,10.3c1.3,0.1,2.4-0.9,2.4-2.2c0-8.6-0.1-12.3-0.1-17c0-1.3-1.1-2.3-2.3-2.2
		C19.4,55.1,14.6,58.3,14.6,65.7z"/>
	<path d="M83.8,65.7c0,6.1-3.4,9.2-8.8,10.1c-1.9,0.3-3.7-1.2-3.7-3.2c0-7.1,0.1-10.7,0.1-14.7c0-2,1.8-3.5,3.8-3.2
		C79.8,55.8,83.8,59,83.8,65.7z"/>
	<path class="st0" d="M19.7,58.5c0-14.5,3.5-38.9,30-39c27.5-0.1,29.5,27,29,39"/>
</g>
</svg>
