<?xml version="1.0" encoding="utf-8"?>
<!-- Generator: Adobe Illustrator 19.2.1, SVG Export Plug-In . SVG Version: 6.00 Build 0)  -->
<svg version="1.1" id="Calque_1" xmlns="http://www.w3.org/2000/svg" xmlns:xlink="http://www.w3.org/1999/xlink" x="0px" y="0px"
	 viewBox="0 0 100 99.9" style="enable-background:new 0 0 100 99.9;" xml:space="preserve">
<style type="text/css">
	.st0{fill:#010202;}
	.st1{fill:#010202;stroke:#010202;stroke-linecap:round;stroke-linejoin:round;stroke-miterlimit:10;}
	.st2{fill:#010202;stroke:#010202;stroke-width:0.8751;stroke-linecap:round;stroke-linejoin:round;stroke-miterlimit:10;}
	.st3{fill:#FFFFFF;}
</style>
<path class="st0" d="M46.3,60.6L46.3,60.6c0,2.8,2.3,5.1,5.1,5.1s5.1-2.3,5.1-5.1s-2.3-5.1-5.1-5.1S46.3,57.8,46.3,60.6z"/>
<path class="st1" d="M61.5,35.1L61.5,35.1c0-6.2-5-11.2-11.1-11.1c-6.2,0-11.1,5-11.1,11.1v0.2h-3.7v-0.2c0-0.2,0-0.4,0-0.7
	c0.2-8.2,7-14.8,15.3-14.6c8.2,0.2,14.8,7,14.6,15.3v10h-3.7L61.5,35.1z"/>
<path class="st2" d="M35.7,43.5h30.1c1.3,0,2.4,1.4,2.4,3.2v29.9c0,1.7-1.1,3.2-2.4,3.2H35.7c-1.3,0-2.4-1.4-2.4-3.2V46.7
	C33.3,44.9,34.3,43.5,35.7,43.5z M63,47.2H38.6c-1.3,0-2.4,1.4-2.4,3.2v22.4c0,1.7,1.1,3.2,2.4,3.2H63c1.3,0,2.4-1.4,2.4-3.2V50.4
	C65.4,48.6,64.3,47.2,63,47.2z"/>
<rect x="49.6" y="64.2" class="st0" width="3.8" height="6.8"/>
<path class="st3" d="M50.8,62.8l0-3c0-0.4,0.3-0.7,0.7-0.7l0,0c0.4,0,0.7,0.3,0.7,0.7l0,3"/>
</svg>
