<?xml version="1.0" encoding="utf-8"?>
<!-- Generator: Adobe Illustrator 19.2.1, SVG Export Plug-In . SVG Version: 6.00 Build 0)  -->
<svg version="1.1" xmlns="http://www.w3.org/2000/svg" xmlns:xlink="http://www.w3.org/1999/xlink" x="0px" y="0px"
	 viewBox="0 0 100 99.9" style="enable-background:new 0 0 100 99.9;" xml:space="preserve">
<style type="text/css">
	.st0{display:none;}
	.st1{display:inline;}
	.st2{fill:#010202;}
	.st3{fill:none;stroke:#000000;stroke-width:3.0657;stroke-linecap:round;stroke-miterlimit:10;}
	.st4{fill:none;stroke:#000000;stroke-width:3.0657;stroke-miterlimit:10;}
</style>
<g id="Calque_1" class="st0">
	<g class="st1">
		<path class="st2" d="M49.8,23.5c-14.3,0-26,11.7-26,26s11.7,26,26,26h25.4c0.5,0,1-0.3,1.2-0.8s0.1-1-0.3-1.4l-6.7-6.7
			c4.1-4.7,6.4-10.8,6.4-17.1C75.8,35.2,64.1,23.5,49.8,23.5z M49.8,72.9c-12.9,0-23.4-10.5-23.4-23.4s10.5-23.4,23.4-23.4
			s23.4,10.5,23.4,23.4c0,6.1-2.3,11.8-6.5,16.2l0,0l0,0l0,0l-0.1,0.1c-0.1,0.1-0.1,0.2-0.2,0.3c0,0.1,0,0.1,0,0.2s-0.1,0.2-0.1,0.3
			c0,0.1,0,0.1,0,0.2s0,0.2,0.1,0.3c0,0.1,0.1,0.1,0.1,0.2s0.1,0.1,0.1,0.2l0,0l0,0l0,0l5.3,5.3L49.8,72.9L49.8,72.9z"/>
	</g>
</g>
<g id="Calque_2">
	<g>
		<path class="st3" d="M64.4,62.7c9.2-3.8,15.1-10.5,15.1-18.9c0-12.4-11.5-22.4-28.2-22.4S19,31.5,19,43.9
			c0,12.4,13.6,22.4,30.3,22.4c3.8,0,6.8-0.4,10.2-1.4"/>
		<path class="st4" d="M60.1,65"/>
		<path class="st4" d="M58.7,65c1.1,1.4,9.6,7.1,10.7,7.9c1.2,0.8-4.6-9.1-4.7-10.1"/>
	</g>
</g>
</svg>
