<?xml version="1.0" encoding="utf-8"?>
<!-- Generator: Adobe Illustrator 19.2.1, SVG Export Plug-In . SVG Version: 6.00 Build 0)  -->
<svg version="1.1" id="Calque_1" xmlns="http://www.w3.org/2000/svg" xmlns:xlink="http://www.w3.org/1999/xlink" x="0px" y="0px"
	 viewBox="0 0 100 99.9" style="enable-background:new 0 0 100 99.9;" xml:space="preserve">
<style type="text/css">
	.st0{display:none;}
	.st1{display:inline;fill:#010202;}
	.st2{display:inline;}
	.st3{fill:#010202;}
	.st4{fill:none;stroke:#000000;stroke-width:2;stroke-linecap:round;stroke-miterlimit:10;}
	.st5{stroke:#000000;stroke-linecap:round;stroke-linejoin:round;stroke-miterlimit:10;}
	.st6{fill:none;stroke:#000000;stroke-linecap:round;stroke-linejoin:round;stroke-miterlimit:10;}
</style>
<g id="Calque_1_1_" class="st0">
	<path class="st1" d="M59.3,50.8c-0.1,0-0.2,0.1-0.4,0s-0.4-0.4-0.3-0.6c3.4-8.2-0.5-17.5-8.7-20.9c-0.2-0.1-0.4-0.4-0.3-0.6
		c0.1-0.2,0.4-0.4,0.6-0.3C58.8,32,63,41.9,59.4,50.5C59.6,50.7,59.5,50.8,59.3,50.8z"/>
	<path class="st1" d="M64.7,51.1c-0.1,0-0.2,0-0.3,0c-0.2-0.1-0.3-0.4-0.2-0.6c1.9-4.7,1.9-9.8,0-14.5s-5.6-8.3-10.3-10.2
		c-0.2-0.1-0.3-0.4-0.2-0.6s0.4-0.3,0.6-0.2c4.9,2,8.7,5.8,10.7,10.7c2,4.9,2,10.3,0,15.2C64.9,51,64.8,51.1,64.7,51.1z"/>
	<path class="st1" d="M70,51.7c-0.1,0-0.2,0-0.3,0c-0.2-0.1-0.3-0.3-0.2-0.6c4.6-11.3-0.7-24.2-12-28.9c-0.2-0.1-0.3-0.3-0.2-0.6
		c0.1-0.2,0.3-0.3,0.6-0.2c11.7,4.8,17.3,18.3,12.5,30C70.2,51.6,70.1,51.7,70,51.7z"/>
	<g class="st2">
		<g>
			<g>
				<path class="st3" d="M36.6,77.3c-3.1,0-5.6-1.5-6.8-3.5c-0.8-1.2-1.5-3.1-1.5-4.8c0-0.8,0.6-1.2,1.4-1.2s1.2,0.6,1.2,1.4
					c0,1,0.4,2.5,1,3.5c1,1.4,3.3,2.7,6.2,2.1c3.1-0.6,4.1-2.9,5.6-6.9c0.6-1.5,1.4-3.5,2.3-5.2c0.8-1.5,1.7-2.9,2.7-4.2
					c1.4-1.9,2.7-3.9,3.5-6c1.5-4.4,0.8-8.7-1.7-12c-2.7-3.3-6.9-4.8-11.8-4.4c-4.4,0.4-6.9,2.1-8.7,5.8c-0.4,0.6-0.8,1.5-0.8,2.3
					s-0.6,1.2-1.4,1.2s-1.2-0.6-1.2-1.2c0-1.4,0.8-2.9,1-3.5c2.1-4.4,5.4-6.6,11-7.3c5.6-0.6,10.8,1.4,13.9,5.2
					c3.1,3.9,3.9,9.1,2.1,14.3c-0.8,2.3-2.3,4.4-3.7,6.6c-1,1.4-1.9,2.7-2.7,4.1c-1,1.5-1.5,3.3-2.1,4.8c-1.5,3.9-2.9,7.5-7.5,8.5
					C38,77.1,37.2,77.3,36.6,77.3z"/>
			</g>
		</g>
		<g>
			<path class="st3" d="M43.2,55.1c-0.2-2.5,1.4-3.1,1.5-5.4c0.2-2.5-1.2-5.2-2.9-5.8c-3.3-1.2-6.4,1-6.4,3.9c0,3.7,5,4.4,5.2,8.3
				c0,3.3-2.1,9.5-6.6,8.3c-1.4-0.4-1.7-1.5-1.7-2.5c-0.2-3.3,3.5-4.1,3.3-6.9c0-2.7-1.7-1.9-2.9-4.6c-1.5-8.7,8.9-11.6,12.7-6
				C47.6,47,46.9,53.8,43.2,55.1z"/>
		</g>
	</g>
</g>
<g id="Calque_2">
	<path class="st4" d="M27.7,44.4c0.8-8,16.7-17.3,23.6-3.2c2.5,5.2,2.9,11.7-3.7,20.8c-4,5.5-1.9,14.2-10.2,14.3
		C31.6,76.4,27,75,29.1,60.1"/>
	<path class="st5" d="M44.2,57.1c0.7-3.4,6.8-13.5-3.7-13.6c-5.7,0-8.2,6.3-4,12.5s-3.1,8.8-3.1,8.8C40.9,64.7,43.1,62.2,44.2,57.1z
		"/>
	<path class="st3" d="M59.3,50.8c-0.1,0-0.2,0.1-0.4,0s-0.4-0.4-0.3-0.6c3.4-8.2-0.5-17.5-8.7-20.9c-0.2-0.1-0.4-0.4-0.3-0.6
		c0.1-0.2,0.4-0.4,0.6-0.3C58.8,32,63,41.9,59.4,50.5C59.6,50.7,59.5,50.8,59.3,50.8z"/>
	<path class="st3" d="M64.7,51.1c-0.1,0-0.2,0-0.3,0c-0.2-0.1-0.3-0.4-0.2-0.6c1.9-4.7,1.9-9.8,0-14.5s-5.6-8.3-10.3-10.2
		c-0.2-0.1-0.3-0.4-0.2-0.6s0.4-0.3,0.6-0.2c4.9,2,8.7,5.8,10.7,10.7c2,4.9,2,10.3,0,15.2C64.9,51,64.8,51.1,64.7,51.1z"/>
	<path class="st3" d="M70,51.7c-0.1,0-0.2,0-0.3,0c-0.2-0.1-0.3-0.3-0.2-0.6c4.6-11.3-0.7-24.2-12-28.9c-0.2-0.1-0.3-0.3-0.2-0.6
		c0.1-0.2,0.3-0.3,0.6-0.2c11.7,4.8,17.3,18.3,12.5,30C70.2,51.6,70.1,51.7,70,51.7z"/>
	<path class="st6" d="M31.2,45.3c3.7-10.8,18.4-11,18.8,5.8"/>
</g>
</svg>
