<?xml version="1.0" encoding="utf-8"?>
<!-- Generator: Adobe Illustrator 19.2.1, SVG Export Plug-In . SVG Version: 6.00 Build 0)  -->
<svg version="1.1" id="Calque_1" xmlns="http://www.w3.org/2000/svg" xmlns:xlink="http://www.w3.org/1999/xlink" x="0px" y="0px"
	 viewBox="0 0 100 99.9" style="enable-background:new 0 0 100 99.9;" xml:space="preserve">
<style type="text/css">
	.st0{fill:#010202;}
</style>
<g transform="translate(0,-952.36218)">
	<path class="st0" d="M27.6,978.7c-0.7,0-1.2,0.5-1.2,1.2v44.9c0,0.7,0.5,1.2,1.2,1.2h44.9c0.7,0,1.2-0.5,1.2-1.2v-44.9
		c0-0.6-0.5-1.2-1.1-1.2h-0.1H27.6z M28.8,981.1h42.5v42.5H28.8V981.1z M39.6,990.2c-0.7,0.1-1.2,0.7-1.1,1.3c0,0.3,0.2,0.6,0.4,0.8
		l10.1,10.1l-10.1,10.1c-0.5,0.5-0.5,1.2,0,1.7s1.2,0.5,1.7,0l0,0l10.1-10.1l10.1,10.1c0.5,0.5,1.2,0.5,1.7,0s0.5-1.2,0-1.7l0,0
		l-10.1-10.1l10.1-10.1c0.5-0.5,0.5-1.2,0.1-1.7c-0.3-0.3-0.7-0.4-1.1-0.4c-0.3,0-0.5,0.2-0.7,0.4l-10.1,10.1l-10.1-10.1
		C40.3,990.3,40,990.2,39.6,990.2z"/>
</g>
</svg>
