<?xml version="1.0" encoding="utf-8"?>
<!-- Generator: Adobe Illustrator 19.2.1, SVG Export Plug-In . SVG Version: 6.00 Build 0)  -->
<svg version="1.1" id="Calque_2" xmlns="http://www.w3.org/2000/svg" xmlns:xlink="http://www.w3.org/1999/xlink" x="0px" y="0px"
	 viewBox="0 0 100 99.9" style="enable-background:new 0 0 100 99.9;" xml:space="preserve">
<style type="text/css">
	.st0{stroke:#000000;stroke-miterlimit:10;}
	.st1{fill:#FFFFFF;stroke:#000000;stroke-miterlimit:10;}
</style>
<polygon class="st0" points="56,53.9 62.1,55.9 64.5,52.5 58.6,50.6 "/>
<polygon class="st1" points="63.4,44.4 68.9,46.1 70.6,43.6 65.3,42.1 "/>
<polygon class="st1" points="58.6,50.6 64.5,52.5 66.8,49.1 61.2,47.3 "/>
<polygon class="st0" points="61.2,47.3 66.8,49.1 68.9,46.1 63.4,44.4 "/>
<polygon class="st1" points="52.6,48.8 49.9,51.9 56,53.9 58.6,50.6 "/>
<polygon class="st0" points="47.4,47.1 44.5,50.1 49.9,51.9 52.6,48.8 "/>
<polygon class="st1" points="42.6,45.6 39.6,48.5 44.5,50.1 47.4,47.1 "/>
<polygon class="st1" points="55.2,39.1 57.4,36.9 52.8,35.6 50.6,37.8 "/>
<polygon class="st0" points="50.6,37.8 52.8,35.6 48.5,34.4 46.2,36.5 "/>
<polygon class="st1" points="48.5,34.4 44.5,33.3 42.1,35.3 46.2,36.5 "/>
<polygon class="st1" points="65.3,42.1 67.1,39.7 61.9,38.2 59.9,40.5 "/>
<polygon class="st0" points="59.9,40.5 61.9,38.2 57.4,36.9 55.2,39.1 "/>
<polygon class="st0" points="70.6,43.6 72.3,41.1 67.1,39.7 65.3,42.1 "/>
<polygon class="st0" points="37.5,44 34.3,46.8 39.6,48.5 42.6,45.6 "/>
<polygon class="st1" points="50.5,43.9 47.4,47.1 52.6,48.8 55.5,45.5 "/>
<polygon class="st1" points="55.5,45.5 61.2,47.3 63.4,44.4 57.9,42.7 "/>
<polygon class="st0" points="45.8,42.5 42.6,45.6 47.4,47.1 50.5,43.9 "/>
<polygon class="st0" points="52.6,48.8 58.6,50.6 61.2,47.3 55.5,45.5 "/>
<polygon class="st1" points="53.1,41.3 48.5,39.9 45.8,42.5 50.5,43.9 "/>
<polygon class="st0" points="55.5,45.5 57.9,42.7 53.1,41.3 50.5,43.9 "/>
<polygon class="st1" points="45.8,42.5 41.1,40.9 37.5,44 42.6,45.6 "/>
<polygon class="st0" points="48.5,39.9 43.9,38.5 41.1,40.9 45.8,42.5 "/>
<polygon class="st0" points="46.2,36.5 42.1,35.3 39.8,37.2 43.9,38.5 "/>
<polygon class="st1" points="50.6,37.8 46.2,36.5 43.9,38.5 48.5,39.9 "/>
<polygon class="st0" points="53.1,41.3 55.2,39.1 50.6,37.8 48.5,39.9 "/>
<polygon class="st1" points="57.9,42.7 59.9,40.5 55.2,39.1 53.1,41.3 "/>
<polygon class="st0" points="63.4,44.4 65.3,42.1 59.9,40.5 57.9,42.7 "/>
<polygon class="st1" points="62.1,55.9 67.1,57.5 69.2,54 64.5,52.5 "/>
<polygon class="st1" points="23.4,47.6 26,48.5 29.8,45.3 27.1,44.5 29.8,45.3 33.1,42.6 30.5,41.8 18.9,51 21.7,52 26,48.5 "/>
<polygon class="st0" points="48.5,34.4 52.1,31.3 48.3,30.2 44.5,33.3 "/>
<polygon class="st1" points="43.9,38.5 39.8,37.2 36.8,39.6 41.1,40.9 "/>
<polygon class="st1" points="45.8,29.6 39.6,34.5 42.1,35.3 44.5,33.3 42,32.6 44.5,33.3 48.3,30.2 "/>
<polygon class="st1" points="70.6,43.6 74.6,44.8 76.1,42.2 72.3,41.1 "/>
<polygon class="st1" points="60.7,33.5 57.4,36.9 61.9,38.2 65,34.6 61.9,38.2 67.1,39.7 70.1,35.9 67.1,39.7 72.3,41.1 75,37.2 
	72.3,41.1 76.1,42.2 78.5,38.2 76.1,42.2 79.3,43.1 81.4,38.9 "/>
<polygon class="st1" points="52.8,35.6 56.2,32.3 52.8,35.6 57.4,36.9 60.7,33.5 52.1,31.3 48.5,34.4 "/>
<polygon class="st1" points="69.2,54 73.2,55.2 75,51.6 71.2,50.5 "/>
<polygon class="st1" points="76.1,42.2 74.6,44.8 77.9,45.8 74.6,44.8 73.1,47.4 76.6,48.5 73.1,47.4 71.2,50.5 75,51.6 79.3,43.1 
	"/>
<polygon class="st0" points="67.1,57.5 71.4,58.9 73.2,55.2 69.2,54 "/>
<polygon class="st1" points="47,55.3 43.1,59.7 47,55.3 41.3,53.4 37.2,57.6 41.3,53.4 36.2,51.8 32.2,55.8 36.2,51.8 30.7,50 
	26.4,53.7 30.7,50 26,48.5 21.7,52 49.7,62 53.3,57.4 "/>
<polygon class="st1" points="64.9,61.1 69.5,62.6 71.4,58.9 67.1,57.5 "/>
<polygon class="st1" points="61.8,66.4 64.9,61.1 59.7,59.4 56.2,64.4 59.7,59.4 53.3,57.4 49.7,62 66.8,68.2 69.5,62.6 64.9,61.1 
	"/>
<polygon class="st1" points="36.8,39.6 34.3,38.8 36.8,39.6 39.8,37.2 37.2,36.4 39.8,37.2 42.1,35.3 39.6,34.5 30.5,41.8 
	33.1,42.6 "/>
<polygon class="st1" points="44.5,50.1 41.3,53.4 47,55.3 49.9,51.9 "/>
<polygon class="st1" points="34.3,46.8 30.7,50 36.2,51.8 39.6,48.5 "/>
<polygon class="st0" points="39.6,48.5 36.2,51.8 41.3,53.4 44.5,50.1 "/>
<polygon class="st0" points="29.8,45.3 26,48.5 30.7,50 34.3,46.8 "/>
<polygon class="st1" points="37.5,44 33.1,42.6 29.8,45.3 34.3,46.8 "/>
<polygon class="st0" points="41.1,40.9 36.8,39.6 33.1,42.6 37.5,44 "/>
<polygon class="st0" points="59.7,59.4 64.9,61.1 67.1,57.5 62.1,55.9 "/>
<polygon class="st0" points="49.9,51.9 47,55.3 53.3,57.4 56,53.9 "/>
<polygon class="st1" points="66.8,49.1 71.2,50.5 73.1,47.4 68.9,46.1 "/>
<polygon class="st0" points="64.5,52.5 69.2,54 71.2,50.5 66.8,49.1 "/>
<polygon class="st0" points="68.9,46.1 73.1,47.4 74.6,44.8 70.6,43.6 "/>
<polygon class="st1" points="56,53.9 53.3,57.4 59.7,59.4 62.1,55.9 "/>
<polygon class="st0" points="56.4,32.9 59.7,33.8 57.2,36.4 53.8,35.4 "/>
<polygon class="st0" points="42.1,33.1 43.5,33.5 42,34.8 40.5,34.3 "/>
<polygon class="st0" points="65,35.1 69.4,36.2 67,39.3 62.5,38 "/>
<polygon class="st0" points="75.3,37.7 77.9,38.4 76,41.9 72.9,41.1 "/>
<polygon class="st0" points="76.2,42.5 75,44.6 77.7,45.5 78.9,43.3 "/>
<polygon class="st0" points="73.1,47.6 71.7,50.3 75,51.3 76.2,48.8 "/>
<polygon class="st0" points="64.9,61.1 62,66.4 66.8,68.2 69.5,62.6 "/>
<polygon class="st0" points="53.3,57.4 59.4,59.4 56.2,64.4 49.9,62.1 "/>
<polygon class="st0" points="37.2,36.4 39.4,37.1 36.6,39.5 34.3,38.8 "/>
<polygon class="st0" points="30.5,41.8 32.9,42.6 29.9,45 27.7,44.4 "/>
<polygon class="st0" points="23.4,47.6 26,48.5 21.7,52 18.9,51 "/>
<polygon class="st0" points="30.7,50 36.2,51.8 32.2,55.8 26.9,53.9 "/>
<polygon class="st0" points="41.3,53.4 46.6,55.3 43.1,59.7 37.2,57.6 "/>
</svg>
