<?xml version="1.0" encoding="utf-8"?>
<!-- Generator: Adobe Illustrator 19.2.1, SVG Export Plug-In . SVG Version: 6.00 Build 0)  -->
<svg version="1.1" xmlns="http://www.w3.org/2000/svg" xmlns:xlink="http://www.w3.org/1999/xlink" x="0px" y="0px"
	 viewBox="0 0 100 99.9" style="enable-background:new 0 0 100 99.9;" xml:space="preserve">
<style type="text/css">
	.st0{display:none;}
	.st1{display:inline;fill:#010202;}
	.st2{fill:none;stroke:#000000;stroke-width:3;stroke-miterlimit:10;}
</style>
<g id="Calque_1" class="st0">
	<path class="st1" d="M39.3,14.2c0.7-0.1,1.3,0,2,0c13.4,0,26.8,0,40.2,0c0.8,0,1.7,0.4,2.3,1.1c0.3,0.3,0.6,0.6,0.7,0.8
		c0.3,0.4,0.4,1.1,0.4,1.7c0,17.6,0,35.3,0,52.9c0.1,1.6,0.1,3.1-0.4,4.7c-0.8,2.3-2.4,4.1-4.4,5.5c-4.7,3.1-10.9,3.4-15.8,1
		c-2.5-1.3-4.7-3.2-5.8-5.8c-0.8-2-1.1-4.2-0.6-6.2c0.7-2.7,2.5-4.9,4.8-6.4c3.1-2,6.9-2.8,10.6-2.4c2,0.3,4,0.8,5.6,1.8
		c0-11,0-22,0-33c-12.1,0-24.3,0-36.3,0c0,13.3,0,26.7,0,40c0,0.6,0.1,1.1,0.1,1.7c0,2.1-0.7,4.1-1.8,5.8c-1.7,2.4-4.4,4.1-7.2,4.9
		c-3.8,1.1-7.9,0.8-11.4-0.8c-2.5-1.1-4.9-3.2-6.1-5.8c-0.8-1.8-1.1-4-0.6-6.1c0.6-2.7,2.4-5.1,4.8-6.6c3.1-2.1,7.1-2.8,10.9-2.4
		c2,0.3,3.8,0.8,5.6,1.8c0-15.1,0-30.1,0-45.2C36.8,15.6,37.9,14.3,39.3,14.2 M42.7,20c0,1.3,0,2.5,0,3.8c12.1,0,24.3,0,36.3,0
		c0-1.3,0-2.5,0-4C67,20,54.8,20,42.7,20 M27.7,66.1c-1.3,0.1-2.4,0.6-3.5,1.1s-2,1.6-2.5,2.7c-0.4,0.8-0.4,2,0,3
		c0.6,1.3,1.6,2.1,2.7,2.7c1.6,0.8,3.2,1.1,4.9,1.1c2,0,4-0.6,5.5-1.7c1-0.7,1.8-1.8,2.1-3.1c0.1-1-0.1-2-0.7-2.8
		c-0.8-1.1-2-2-3.2-2.5C31.3,66.1,29.4,66,27.7,66.1 M70,66.9c-1.8,0.3-3.7,1-4.9,2.3c-0.7,0.7-1.4,1.7-1.4,2.8
		c-0.1,1.3,0.6,2.4,1.4,3.2c1.1,1,2.5,1.7,4,2.1c2.7,0.7,5.6,0.3,8-1.3c1.1-0.7,2-1.8,2.3-3.1c0.1-1-0.1-2-0.6-2.8
		c-0.7-1.1-2-2-3.2-2.5C73.5,66.9,71.7,66.6,70,66.9z"/>
</g>
<g id="Calque_2">
	<path class="st2" d="M77.3,74.7l-0.2-54.5c0-2-1.6-3.6-3.6-3.6l-36.1-0.2c-1.8,0-3.2,1.4-3.2,3.2l0.4,52.3"/>
	<ellipse cx="25.5" cy="71.6" rx="10.6" ry="4.9"/>
	<ellipse cx="68.2" cy="74.3" rx="10.6" ry="4.9"/>
	<line class="st2" x1="34.9" y1="28.8" x2="76.6" y2="28.8"/>
</g>
</svg>
