<?xml version="1.0" encoding="utf-8"?>
<!-- Generator: Adobe Illustrator 19.2.1, SVG Export Plug-In . SVG Version: 6.00 Build 0)  -->
<svg version="1.1" xmlns="http://www.w3.org/2000/svg" xmlns:xlink="http://www.w3.org/1999/xlink" x="0px" y="0px"
	 viewBox="0 0 100 99.9" style="enable-background:new 0 0 100 99.9;" xml:space="preserve">
<style type="text/css">
	.st0{display:none;}
	.st1{display:inline;fill:#010202;}
	.st2{display:inline;}
	.st3{fill:#010202;}
	.st4{fill:none;stroke:#010202;stroke-width:2;stroke-miterlimit:10;}
	.st5{fill:none;stroke:#010202;stroke-linecap:round;stroke-miterlimit:10;}
	.st6{fill:none;stroke:#010202;stroke-linecap:round;stroke-linejoin:round;stroke-miterlimit:10;}
</style>
<g id="Calque_1" class="st0">
	<path class="st1" d="M21.6,63.5c-1.1,1.2-3.3,0.9-4.8-0.6l0,0c-1.5-1.5-1.7-3.7-0.6-5l17-17.2c1.1-1.2,3.3-0.9,4.8,0.6l0,0
		c1.5,1.5,1.7,3.7,0.6,5L21.6,63.5z"/>
	<path class="st1" d="M46.1,16.3c-9.3,0-16.7,7.6-16.7,16.7c0,9.3,7.6,16.7,16.7,16.7c9.3,0,16.7-7.6,16.7-16.7
		C63,23.8,55.4,16.3,46.1,16.3z M46.1,43.2c-5.6,0-10.2-4.5-10.2-10.2s4.5-10.2,10.2-10.2c5.6,0,10.2,4.5,10.2,10.2
		C56.3,38.6,51.7,43.2,46.1,43.2z"/>
	<g class="st2">
		<rect x="49.1" y="66.6" class="st3" width="24.3" height="2.7"/>
		<rect x="49.1" y="59.1" class="st3" width="24.3" height="2.7"/>
		<rect x="49.1" y="51.4" class="st3" width="24.3" height="2.7"/>
		<path class="st3" d="M52.9,25.3l-0.2,0.2c2.1,1.9,3.5,4.6,3.5,7.6c0,5.6-4.5,10.2-10.2,10.2c-3,0-5.6-1.2-7.4-3.3l-1.4,1.5v42.1
			H85V25.3H52.9L52.9,25.3z M78.1,76.5h-34V43.6h12.4V32.1h21.7L78.1,76.5L78.1,76.5L78.1,76.5z"/>
	</g>
</g>
<g id="Calque_2">
	<rect x="44.1" y="27.8" class="st4" width="37.2" height="53.1"/>
	<path class="st3" d="M21.6,63.5c-1.1,1.2-3.3,0.9-4.8-0.6l0,0c-1.5-1.5-1.7-3.7-0.6-5l17-17.2c1.1-1.2,3.3-0.9,4.8,0.6l0,0
		c1.5,1.5,1.7,3.7,0.6,5L21.6,63.5z"/>
	<path class="st3" d="M46.1,16.3c-9.3,0-16.7,7.6-16.7,16.7c0,9.3,7.6,16.7,16.7,16.7c9.3,0,16.7-7.6,16.7-16.7
		C63,23.8,55.4,16.3,46.1,16.3z M46.1,43.2c-5.6,0-10.2-4.5-10.2-10.2s4.5-10.2,10.2-10.2c5.6,0,10.2,4.5,10.2,10.2
		C56.3,38.6,51.7,43.2,46.1,43.2z"/>
	<line class="st5" x1="51.8" y1="53.5" x2="75.1" y2="53.5"/>
	<line class="st6" x1="51.8" y1="59" x2="75.6" y2="59"/>
</g>
</svg>
