<?xml version="1.0" encoding="utf-8"?>
<!-- Generator: Adobe Illustrator 19.2.1, SVG Export Plug-In . SVG Version: 6.00 Build 0)  -->
<svg version="1.1" id="Calque_2" xmlns="http://www.w3.org/2000/svg" xmlns:xlink="http://www.w3.org/1999/xlink" x="0px" y="0px"
	 viewBox="0 0 100 99.9" style="enable-background:new 0 0 100 99.9;" xml:space="preserve">
<style type="text/css">
	.st0{fill:none;stroke:#000000;stroke-miterlimit:10;}
</style>
<path d="M67.9,27.9H32.8c-2.9,0-5.2,2.4-5.2,5.2v35c0,2.9,2.4,5.2,5.2,5.2h35.1c2.9,0,5.2-2.3,5.2-5.1V33.1
	C73.1,30.2,70.7,27.9,67.9,27.9z M68.3,69.6h-36V51.4h36V69.6z M63.8,42.6c-2.9,0-5.2-2.3-5.2-5.2c0-2.9,2.3-5.2,5.2-5.2
	s5.2,2.3,5.2,5.2C69,40.3,66.7,42.6,63.8,42.6z"/>
<circle cx="63.8" cy="37.4" r="2.8"/>
<line class="st0" x1="36.3" y1="50.6" x2="36.3" y2="71.5"/>
<line class="st0" x1="42.1" y1="50.6" x2="42.1" y2="71.5"/>
<line class="st0" x1="47.9" y1="50.6" x2="47.9" y2="71.5"/>
<line class="st0" x1="53.3" y1="50.6" x2="53.3" y2="71.5"/>
<line class="st0" x1="58.5" y1="50.8" x2="58.5" y2="71.7"/>
<line class="st0" x1="64.2" y1="50.9" x2="64.2" y2="71.8"/>
</svg>
