<?xml version="1.0" encoding="utf-8"?>
<!-- Generator: Adobe Illustrator 19.2.1, SVG Export Plug-In . SVG Version: 6.00 Build 0)  -->
<svg version="1.1" id="Calque_1" xmlns="http://www.w3.org/2000/svg" xmlns:xlink="http://www.w3.org/1999/xlink" x="0px" y="0px"
	 viewBox="0 0 100 99.9" style="enable-background:new 0 0 100 99.9;" xml:space="preserve">
<style type="text/css">
	.st0{fill:#010202;}
</style>
<g>
	<g>
		<path class="st0" d="M30.7,72.8c-1.2,1.2-3.4,0.9-4.9-0.6l0,0c-1.5-1.6-1.8-3.8-0.6-5l17.3-17.6c1.2-1.2,3.4-0.9,4.9,0.6l0,0
			c1.5,1.6,1.8,3.8,0.6,5L30.7,72.8z"/>
		<path class="st0" d="M55.8,24.6c-9.5,0-17.1,7.7-17.1,17.1s7.7,17.1,17.1,17.1S73,51.2,73,41.7C73,32.3,65.3,24.6,55.8,24.6z
			 M55.8,52c-5.7,0-10.3-4.6-10.3-10.3s4.6-10.3,10.3-10.3S66.1,36,66.1,41.7C66.1,47.4,61.5,52,55.8,52z"/>
	</g>
	<polygon class="st0" points="71,57 65.9,57 65.9,63.4 59.7,63.4 59.7,68 65.9,68 65.9,74.4 71,74.4 71,68 77.4,68 77.4,63.4 
		71,63.4 	"/>
</g>
</svg>
